<?xml version="1.0" standalone="no"?>
<!DOCTYPE svg PUBLIC "-//W3C//DTD SVG 1.1//EN" "http://www.w3.org/Graphics/SVG/1.1/DTD/svg11.dtd" >
<svg xmlns="http://www.w3.org/2000/svg">
<metadata>
This is a custom SVG webfont generated by Font Squirrel.
Copyright   : Copyright c 2010 by Svetoslav Simov All rights reserved
Designer    : Svetoslav Simov
Foundry     : Svetoslav Simov
Foundry URL : httpfontfabriccom
</metadata>
<defs>
<font id="DekarRegular" horiz-adv-x="966" >
<font-face units-per-em="2048" ascent="1536" descent="-512" />
<missing-glyph horiz-adv-x="487" />
<glyph unicode=" "  horiz-adv-x="487" />
<glyph unicode="&#x09;" horiz-adv-x="487" />
<glyph unicode="&#xa0;" horiz-adv-x="487" />
<glyph unicode="!" horiz-adv-x="376" d="M129 0v147h117v-147h-117zM135 311v1127h109v-1127h-109z" />
<glyph unicode="&#x22;" horiz-adv-x="458" d="M78 1098v340h98v-340h-98zM266 1098v340h99v-340h-99z" />
<glyph unicode="'" horiz-adv-x="319" d="M119 1098v340h98v-340h-98z" />
<glyph unicode="(" horiz-adv-x="456" d="M162 294q-35 351 0 702.5t127 537.5h102q-92 -186 -127 -537.5t0 -702.5t127 -538h-102q-92 187 -127 538z" />
<glyph unicode=")" horiz-adv-x="489" d="M82 -244q92 186 127 537.5t0 703t-127 537.5h102q92 -186 127 -537.5t0 -702.5t-127 -538h-102z" />
<glyph unicode="+" horiz-adv-x="849" d="M106 539v98h273v272h98v-272h279v-98h-279v-279h-98v279h-273z" />
<glyph unicode="," horiz-adv-x="458" d="M164 4v137h123v-137q0 -121 -111 -108v45q16 -2 27.5 19.5t5.5 43.5h-45z" />
<glyph unicode="-" horiz-adv-x="649" d="M88 510v102h440v-102h-440z" />
<glyph unicode="." horiz-adv-x="419" d="M137 -2v139h123v-139h-123z" />
<glyph unicode="0" horiz-adv-x="1069" d="M100 264v914q0 104 89.5 175.5t216 88t253.5 0t216.5 -88t89.5 -175.5v-914q0 -106 -89.5 -179t-216.5 -89t-253.5 0t-216 89t-89.5 179zM205 272q0 -27 6 -51q35 -98 221 -125.5t316 29.5l-517 1132q-27 -37 -26 -79v-906zM315 1319l519 -1137q27 35 26 90l2 906 q0 63 -59.5 108t-143.5 61.5t-179 9.5t-165 -38z" />
<glyph unicode="1" horiz-adv-x="497" d="M55 1327v107h322v-1434h-105v1327h-217z" />
<glyph unicode="2" horiz-adv-x="1005" d="M82 168v96q0 96 40 174t113.5 133.5t143.5 93t170 85t149 75.5q141 82 138 252q0 119 -97 199q-156 127 -401 55q-61 -16 -105.5 -65t-46.5 -113h-102q0 92 57.5 159.5t149.5 100.5h2q113 43 266.5 31t245.5 -88q131 -113 133 -277q0 -229 -188 -336 q-51 -31 -143.5 -71.5t-155 -72.5t-129 -78t-101.5 -111.5t-37 -147.5v-94q0 -45 16.5 -57.5t63.5 -12.5h666v-98h-668q-98 0 -139 35t-41 133z" />
<glyph unicode="3" d="M80 0v104h416v-2l8 2q96 0 182 44.5t86 127.5v218q0 84 -87 131t-181 47h-8h-416v90h416h8q94 0 181 48t87 132v217q0 84 -86 128t-182 44h-8h-416v105l426 -2q141 0 256 -72t115 -203v-217q0 -145 -150 -225q150 -76 150 -223v-218q0 -131 -114 -202.5t-257 -73.5h-426z " />
<glyph unicode="4" horiz-adv-x="1030" d="M75 480.5q-44 111.5 29 217.5l357 736h121l-389 -787q-37 -49 -22 -113.5t85 -64.5h571v965h103v-1434h-103v367h-575q-133 2 -177 113.5z" />
<glyph unicode="5" horiz-adv-x="1085" d="M117 969v465h831v-105h-727v-354q0 -51 19.5 -71.5t68.5 -20.5h234q90 0 168 -15q121 -23 198.5 -91t77.5 -175v-338q0 -98 -66.5 -162.5t-172.5 -93.5q-80 -23 -199 -21.5t-201 23.5q-102 29 -165.5 94.5t-61.5 159.5h100q0 -113 154 -155q72 -20 173 -21.5t175 18.5 q72 18 117 58.5t47 99.5v338q-2 63 -56.5 107.5t-138.5 58.5q-66 12 -143 12h-250q-88 0 -135 49.5t-47 139.5z" />
<glyph unicode="6" horiz-adv-x="1062" d="M102 264v901q0 113 79 180.5t198 90.5q195 37 366 -13q98 -29 162 -94t62 -162l-101 2q0 113 -153 158q-145 41 -318 8q-80 -14 -136 -56t-56 -114v-395h356q66 0 131 -12q115 -20 196 -89t81 -180v-219q0 -195 -228 -260q-82 -23 -200.5 -23.5t-198.5 21.5 q-106 29 -172 94.5t-68 161.5zM203 264q2 -57 47 -97t119 -61q72 -18 173 -18t173 21q154 45 153 159l-2 221q0 72 -57 114t-135 56q-49 8 -109 9h-360v-185v-219h-2z" />
<glyph unicode="7" horiz-adv-x="978" d="M51 1331v103h690q135 -2 179.5 -114t-29.5 -218l-660 -1102h-120l692 1153q37 49 20.5 113.5t-84.5 64.5h-688z" />
<glyph unicode="8" horiz-adv-x="1116" d="M94 262v242q0 86 63.5 145.5t153.5 75.5q-86 27 -137 87t-51 140v226q0 131 129 204.5t305 73.5t305 -73.5t129 -204.5v-226q0 -80 -52 -140t-138 -87q90 -16 153.5 -74.5t63.5 -146.5v-242q0 -131 -140.5 -204.5t-320.5 -73.5t-321.5 73.5t-141.5 204.5zM199 262 q0 -82 110.5 -129t247.5 -47t247.5 47t110.5 129v242q0 82 -111.5 133t-246.5 51t-246.5 -51t-111.5 -133v-242zM225 952q0 -82 99.5 -132t232.5 -50q131 0 230.5 50t99.5 132v226q0 82 -98.5 129t-231.5 47q-135 0 -233.5 -47t-98.5 -129v-226z" />
<glyph unicode="9" horiz-adv-x="1062" d="M92 266h103q0 -115 151 -157q147 -41 320 -9q78 14 135 56.5t57 113.5v371h-356q-78 0 -131 10q-117 23 -198 91.5t-81 179.5l2 245q-2 195 225 260q82 23 202 24t200 -21q106 -29 171.5 -93.5t68.5 -162.5v-906q0 -111 -80 -178t-197 -90q-195 -37 -369 12 q-98 29 -160.5 93.5t-62.5 160.5zM195 922q2 -72 59 -114t135 -56q49 -8 109 -9h360v213v218q0 59 -45 99t-119 58q-72 20 -173 19.5t-173 -21.5q-154 -41 -153 -160v-247z" />
<glyph unicode=":" horiz-adv-x="440" d="M137 -2v139h123v-139h-123zM137 745v140h123v-140h-123z" />
<glyph unicode=";" horiz-adv-x="403" d="M135 2v137h123v-137q0 -121 -111 -108v45q16 -2 27.5 19.5t5.5 43.5h-45zM137 745v140h123v-140h-123z" />
<glyph unicode="=" horiz-adv-x="1005" d="M123 510v102h715v-102h-715zM123 805v102h715v-102h-715z" />
<glyph unicode="?" horiz-adv-x="989" d="M63 1155q0 92 58.5 160.5t150.5 99.5q113 43 266.5 31t245.5 -88q131 -106 134 -277q4 -231 -189 -340q-29 -16 -74 -41q-104 -57 -122.5 -93t-20.5 -187v-51v-133h-102v135v96q0 39 7 77t8 57.5t18.5 46t22.5 34.5t37 31.5t43 31t60 35t72 41.5q141 84 137 260 q0 119 -96 199q-150 125 -402 55q-61 -18 -105 -67t-46 -113h-103zM403 -2v121h113v-121h-113z" />
<glyph unicode="@" horiz-adv-x="1024" />
<glyph unicode="A" horiz-adv-x="1093" d="M102 0v1171q0 135 127 211q113 68 307.5 68t305.5 -68q127 -76 127 -211h2v-1171h-103v561h-663v-561h-103zM205 664h663v507q0 76 -80 125q-88 53 -253.5 53.5t-251.5 -53.5q-78 -47 -78 -125v-507z" />
<glyph unicode="B" horiz-adv-x="1093" d="M100 0l2 1434h488q137 0 237 -60q121 -70 123 -200v-238q-2 -131 -123 -201l-6 -4q23 -10 39 -20q135 -82 135 -224v-194v-2q0 -141 -135 -223q-111 -68 -270 -68h-490zM203 102h387q129 0 217 54q88 51 88 135v2v194q0 84 -88 136q-82 53 -215 53h-2h-387v-574zM203 778 h385q117 0 188 45q72 43 72 117v234q0 72 -72 112q-76 45 -186 45h-387v-553z" />
<glyph unicode="C" horiz-adv-x="1056" d="M102 268v899q2 106 79 175t198 92q66 13 150 13q21 0 43 -1q112 -4 190 -29q209 -72 209 -250h-103q0 106 -137 154q-84 27 -181 27q-72 0 -153 -15q-84 -16 -138 -59t-54 -107v-899q0 -57 45 -97t119 -60q72 -18 173 -18.5t173 20.5q154 43 153 155l103 2 q0 -96 -62.5 -161.5t-165.5 -94.5q-82 -23 -201 -23h-11q-113 0 -189 21q-106 29 -172 94.5t-68 161.5z" />
<glyph unicode="D" horiz-adv-x="1083" d="M102 0v1436h498q143 0 258 -72t115 -205v-880q0 -135 -118 -207t-269 -72h-484zM207 104h379q88 0 170 32t104 100q8 23 8 923q0 84 -87 129t-183 45h-8h-2h-381v-1229z" />
<glyph unicode="E" d="M102 276v1160h762v-103h-659v-563h659v-104h-659q0 -410 8 -433q23 -66 104.5 -97.5t167.5 -31.5h379v-104h-379v2h-8q-142 0 -257 69q-118 70 -118 205z" />
<glyph unicode="F" horiz-adv-x="942" d="M100 0v1436h766v-103h-661v-571h559v-105h-559q0 -12 -1 -303t-1 -354h-103z" />
<glyph unicode="G" horiz-adv-x="1079" d="M102 258v918v2q2 106 79 174.5t198 91.5q88 16 167 16q117 0 216 -35q96 -31 152.5 -94t56.5 -155l-103 2q0 104 -137 151q-84 29 -184 29q-71 0 -150 -15q-84 -16 -138 -59t-54 -108v-918q0 -59 45 -99t119 -59q70 -20 164 -19h10q100 1 172 21q154 43 153 156v356h-282 v95h385v-451q0 -94 -62.5 -159.5t-165.5 -94.5q-84 -25 -200.5 -24.5t-200.5 22.5q-106 29 -172 93.5t-68 162.5z" />
<glyph unicode="H" horiz-adv-x="1052" d="M102 0v1436h101v-670h635v670h102v-1436h-102v664h-635v-664h-101z" />
<glyph unicode="I" horiz-adv-x="366" d="M129 0v1436h102v-1436h-102z" />
<glyph unicode="J" horiz-adv-x="847" d="M57 258l103 -2q0 -68 48 -114t119 -57q37 -6 73 -6q33 0 67 5q70 10 119 54t49 108q0 995 -2 1188h106v-1174q0 -106 -70.5 -179t-170.5 -88q-47 -7 -94 -7l-107 9q-100 17 -170 89t-70 174z" />
<glyph unicode="K" horiz-adv-x="1087" d="M109 0v1434h100v-725h35l663 725h125v-21l-663 -704h262q358 0 358 -265v-444h-102v444q0 94 -76 135.5t-180 41.5h-422v-621h-100z" />
<glyph unicode="L" horiz-adv-x="839" d="M102 307v1127h105v-1127q0 -104 86 -153.5t199 -49.5h296v-104h-296q-166 0 -278 74.5t-112 232.5z" />
<glyph unicode="M" horiz-adv-x="1351" d="M104 0v1434h127l435 -955l436 955h127v-1434h-105v1149l15 145h-6l-43 -137l-381 -813h-84l-381 813l-43 137h-6l14 -145v-1149h-105z" />
<glyph unicode="N" horiz-adv-x="1085" d="M102 0v1434h111l616 -1158l52 -135h6l-19 146v1147h103v-1434h-109l-616 1157l-51 137h-9l19 -145v-1149h-103z" />
<glyph unicode="O" horiz-adv-x="1075" d="M104 262v914q0 104 89.5 175.5t216.5 88.5q63 8 127 8l127 -8q127 -16 216 -88t89 -176v-914q0 -106 -89 -179t-216 -89q-63 -8 -127 -8l-127 8q-127 16 -216.5 89t-89.5 179zM207 1176l2 -904q0 -41 6 -53q29 -84 175 -119q73 -17 147 -17l146 17q146 35 175 119 q6 12 6 53l2 904q0 70 -67.5 116.5t-164.5 57.5q-49 5 -97 5l-98 -5q-97 -10 -164.5 -57t-67.5 -117z" />
<glyph unicode="P" horiz-adv-x="942" d="M104 0v1434h385q143 0 261 -71t118 -204v-330q0 -131 -112.5 -203.5t-268.5 -72.5h-282v-553h-101zM205 655h282q113 0 197 46.5t84 127.5v330q0 88 -89 130t-190 44h-284v-678z" />
<glyph unicode="Q" horiz-adv-x="1077" d="M104 266v908q0 76 48.5 135t124 88.5t167.5 44.5q46 7 92.5 7t93.5 -7q93 -14 168.5 -45t124 -89.5t48.5 -133.5v-908q0 -74 -39 -133l125 -143h-139l-62 71q-76 -49 -203 -65q-60 -8 -118 -8q-66 0 -131 10q-122 18 -211 88.5t-89 179.5zM209 274q0 -27 6 -51 q27 -76 142 -109q89 -26 182 -26q28 0 56 2q122 10 187 47l-135 142l137 2l74 -72q10 25 10 65v900q0 70 -67.5 115.5t-164.5 57.5q-49 6 -97 5l-98 -5q-97 -11 -164.5 -58.5t-67.5 -114.5v-900z" />
<glyph unicode="R" horiz-adv-x="960" d="M102 0v1434h385q23 0 46.5 -2t73.5 -9.5t90 -26t82 -46t65.5 -77.5t23.5 -114v-342q0 -82 -55 -146.5t-139 -80.5q84 -18 139 -78.5t55 -144.5v-367h-102v367q0 63 -52 107t-112.5 59.5t-122.5 15.5h-276v-549h-101zM203 641h276q66 0 125.5 13.5t110.5 55.5t51 107v342 q0 88 -91 136t-188 48h-284v-702z" />
<glyph unicode="S" horiz-adv-x="958" d="M49 272l101 -2q2 -61 47 -110t106 -68q89 -25 166 -25q138 0 236 80q94 76 96 199q0 78 -30 140.5t-85 102.5t-112.5 65.5t-129.5 43.5q-229 57 -311 144q-84 93 -84 231q0 14 1 28q9 157 106 247q92 86 258 103q32 3 63 3q128 0 236 -57q133 -72 133 -213l-103 2 q0 96 -101 140q-73 32 -157 32q-34 0 -69 -5q-125 -17 -191 -79q-66 -63 -73 -174q-1 -13 -1 -26q0 -93 52 -159q61 -74 268 -124q207 -53 321 -153q112 -98 111 -285q0 -171 -133 -283q-92 -76 -247 -89q-37 -3 -70 -4q-110 0 -197 33q-92 33 -150.5 101.5t-56.5 160.5z " />
<glyph unicode="T" horiz-adv-x="985" d="M45 1343v91h883v-91h-389l-4 -1343h-105l4 1343h-389z" />
<glyph unicode="U" horiz-adv-x="1079" d="M102 268v1166h103v-1166q0 -82 80 -129q76 -49 229 -49h31q172 0 243 45q80 47 80 133v1166h103v-1166q0 -137 -129 -217q-102 -64 -274 -64q-10 0 -21 1h-21q-11 0 -21 -1q-172 0 -274 64q-129 80 -129 217z" />
<glyph unicode="V" horiz-adv-x="1062" d="M102 461v975h105v-977q0 -43 6 -60.5t35 -44.5l284 -254l285 254q27 27 33 44.5t6 60.5v977h105v-975q0 -117 -78 -187l-330 -290h-43l-330 290q-78 70 -78 187z" />
<glyph unicode="W" horiz-adv-x="1697" d="M102 459v975h103v-977q0 -41 6 -58.5t35 -46.5l256 -254l254 254q29 29 35 45.5t6 59.5v2v975h104v-975v-2q0 -43 6 -59.5t33 -45.5l256 -254l256 254q27 29 33 45.5t6 59.5v977h104v-975q0 -111 -77 -187l-299 -290h-45q-18 16 -65.5 62t-71 68.5t-61.5 60.5t-68.5 72 t-59.5 68q-84 -102 -326 -331h-43l-301 290q-76 76 -76 187z" />
<glyph unicode="X" horiz-adv-x="1036" d="M96 0v293q0 121 76 186l268 236l-268 237q-76 66 -76 187v295h103v-297q0 -43 6 -59.5t35 -45.5l284 -254l285 254q27 29 33 45.5t6 59.5v297h104v-295q0 -119 -78 -187l-266 -237l266 -236q78 -68 78 -186v-293h-104v295q0 43 -6 60.5t-33 43.5l-285 254l-284 -254 q-29 -27 -35 -44t-6 -60v-295h-103z" />
<glyph unicode="Y" horiz-adv-x="993" d="M80 1051v383h104v-385q0 -66 54 -119l262 -275l262 275q53 53 53 119v385h105v-383q0 -109 -78 -187l-291 -303v-559h-102v559l-291 303q-78 78 -78 187z" />
<glyph unicode="Z" horiz-adv-x="950" d="M63 193v75q0 117 75 225.5t180.5 190.5t211 159t180 160.5t74.5 165.5v91q0 43 -18 60t-59 17h-619v97h621q94 0 132 -38t38 -136v-91q-2 -113 -76 -210t-178.5 -169.5t-210 -146.5t-180 -170t-76.5 -207v-73q0 -88 73 -89h650v-102h-650q-88 0 -128 44.5t-40 146.5z" />
<glyph unicode="`" horiz-adv-x="376" d="M70 1585v14h133l59 -178h-90z" />
<glyph unicode="a" horiz-adv-x="952" d="M43 359q27 116 129 184q122 82 313 82q100 0 220 -23v131q0 51 -25 84q-49 70 -172 94q-35 6 -75.5 6.5t-86.5 -6.5q-131 -23 -188 -106l-88 55q57 94 199 133q78 21 157 22q64 0 129 -15q143 -32 209 -121q43 -61 43 -154v-539q0 -96 100 -96v-92q-14 -1 -27 -1 q-117 0 -157 83q-109 -106 -299 -107q-68 0 -150 21q-133 37 -195 143q-44 75 -44 154q0 33 8 68zM146 341q-6 -25 -6 -50q0 -52 28 -101q41 -72 135 -98q51 -14 121 -14q102 0 191.5 42t89.5 130v258q-89 27 -199 27q-24 0 -48 -1q-138 -7 -220 -65q-73 -49 -92 -128z" />
<glyph unicode="b" horiz-adv-x="970" d="M102 0v1442h105v-555q82 98 243 111q23 2 44 2q134 0 246 -69q130 -81 130 -224v-453q0 -96 -64.5 -162.5t-170.5 -93.5q-56 -17 -118 -17q-60 0 -126 16q-133 32 -192 116v-113h-97zM207 299q0 -109 85 -163t195 -54q70 0 121 14q70 20 114 60.5t44 97.5v457 q0 74 -57.5 122t-139.5 58q-39 5 -78 5q-43 0 -87 -6q-83 -11 -140 -56.5t-57 -108.5v-426z" />
<glyph unicode="c" horiz-adv-x="954" d="M98 268v469q0 98 65.5 164t168.5 94q78 20 149 21q68 0 150 -21q104 -29 168.5 -94t64.5 -164h-102q0 59 -44 99.5t-116 60.5q-59 16 -120.5 16t-123.5 -16q-158 -43 -157 -162v-467q0 -119 157 -164q60 -16 121.5 -16t122.5 16h2q70 20 114 60.5t44 99.5h102 q0 -96 -64.5 -161.5t-168.5 -94.5v-2q-75 -19 -150 -19l-149 19q-102 29 -168 95.5t-66 166.5z" />
<glyph unicode="d" d="M100 254v453q0 143 130 224q112 69 246 69q22 0 45 -2q161 -13 243 -111v555h102v-1442h-94v113q-59 -84 -193 -116q-66 -16 -127 -16q-62 0 -118 17q-104 29 -169 94.5t-65 161.5zM203 254q0 -57 44 -97t115 -61q51 -14 121 -14q111 0 196 54t85 163v426 q0 63 -57.5 108.5t-140.5 56.5q-43 6 -86 6q-39 0 -79 -5q-82 -10 -139 -58.5t-57 -121.5v-457h-2z" />
<glyph unicode="e" horiz-adv-x="950" d="M102 287v454q0 96 64.5 162t171.5 94q75 20 149 20.5t148 -20.5q129 -39 189 -149q39 -71 39 -146q0 -42 -12 -86q-34 -121 -153 -184q-49 -27 -121.5 -40t-121.5 -14h-27q-44 0 -111 2q-88 3 -110 3v-104q0 -51 24 -86q53 -72 170 -93q41 -7 81.5 -7t80.5 7 q129 16 191 105l88 -53q-76 -125 -264 -154q-50 -9 -98 -9q-41 0 -81 7q-172 27 -252 135q-45 66 -45 156zM207 473q4 0 110 -1h20q95 0 169 9q82 10 143 39q84 39 108 121q8 29 8 58q0 51 -27 100q-42 76 -130 100q-60 16 -121 16t-122 -16q-70 -20 -114 -60t-44 -98v-268z " />
<glyph unicode="f" horiz-adv-x="591" d="M31 911v95h176v149q0 160 104 227q93 60 229 61q16 0 33 -1v-94q-61 -2 -100 -8.5t-80 -25t-61.5 -58t-20.5 -101.5v-149h242v-95h-242v-911h-104v911h-176z" />
<glyph unicode="g" horiz-adv-x="983" d="M102 451v292q0 96 64.5 162t169.5 94q70 20 149 21q82 0 150 -21q59 -14 110 -47l72 76l78 -67l-72 -76q45 -61 45 -142v-292q0 -178 -206 -250q-74 -23 -130 -25q-23 -2 -47 -2q-40 0 -84 6h-2q-23 2 -53 10q-66 0 -76 -49q-1 -6 -1 -12q0 -39 61 -49q45 -8 129 -8 t145.5 -4.5t124 -22.5t97 -70.5t34.5 -140.5v-37q0 -174 -192 -227q-63 -20 -166 -21q-98 0 -170 19q-209 45 -219 221q-1 15 -1 29q0 41 9 69h102q-8 -30 -8 -61q0 -15 2 -31q8 -88 135 -129q73 -22 144 -22q73 0 143 24q61 20 89 48t28 81v37q0 70 -48.5 104.5t-118 35.5 t-147 3.5t-139.5 6.5q-111 18 -139 101q-8 24 -9 46q0 53 50 92q10 10 22 17q-125 74 -125 211zM207 451q0 -68 59.5 -112t149.5 -56q29 -5 67 -6q19 0 41 2q59 6 105 20q137 47 137 152v292q0 57 -44 97.5t-114 60.5q-55 14 -123 14q-70 0 -120 -14q-158 -43 -158 -158 v-292z" />
<glyph unicode="h" horiz-adv-x="968" d="M104 0v1442h105v-516q98 92 262 97h22q149 0 246 -65q129 -74 131 -210v-7v-741h-102v741v4q-2 78 -82 125q-74 45 -199 50h-6q-176 -4 -245 -95q-27 -37 -27 -92v-733h-105z" />
<glyph unicode="i" horiz-adv-x="360" d="M123 1255v183h117v-183h-117zM129 0v1006h104v-1006h-104z" />
<glyph unicode="j" horiz-adv-x="344" d="M-111 -332h20q223 0 222 187v1155h102v-1153q0 -156 -96 -227q-91 -67 -231 -66h-17v104zM127 1264v182h111v-182h-111z" />
<glyph unicode="k" horiz-adv-x="952" d="M102 0v1442h103v-934l538 498h138v-11l-465 -426q54 12 107 12q51 0 101 -11q101 -22 171.5 -88t72.5 -160v-9v-313h-102v313v4q-2 96 -113 144q-77 33 -163 33q-37 0 -76 -7q-129 -20 -183 -90q-27 -37 -26 -92v-305h-103z" />
<glyph unicode="l" horiz-adv-x="407" d="M104 217v1217h103v-1219q0 -78 32.5 -104.5t116.5 -26.5v-92q-18 -1 -35 -1q-104 0 -156 43q-61 50 -61 183z" />
<glyph unicode="m" horiz-adv-x="1544" d="M100 0v1006h105v-97q98 109 278 109q98 0 177 -38t110 -108q39 68 123 105t178 37q145 -2 250.5 -76t105.5 -209v-729h-104v731q0 92 -74.5 140.5t-179.5 48.5q-100 0 -174 -46.5t-80 -132.5v-741h-102v741q-6 90 -78 139q-69 46 -160 46h-8q-104 -4 -183 -62.5 t-79 -148.5v-715h-105z" />
<glyph unicode="n" horiz-adv-x="970" d="M100 0v1008h105v-95q98 106 278 107h9q152 0 263 -73q114 -75 113 -216v-731h-104v733q0 86 -83 136.5t-196 50.5q-115 0 -197.5 -52.5t-82.5 -150.5v-717h-105z" />
<glyph unicode="o" horiz-adv-x="960" d="M96 266v475q0 96 64.5 162t169.5 94q70 20 149 21q82 0 150 -21q104 -29 168.5 -94t64.5 -162v-475q0 -178 -207 -250q-82 -26 -172 -26q-50 0 -102 8q-125 23 -205 91t-80 177zM199 266q0 -66 56 -110.5t142 -59.5q43 -7 85 -7q74 0 141 24q137 47 137 153v475 q0 57 -44 97.5t-114 60.5q-61 16 -122.5 16t-123.5 -16q-158 -43 -157 -158v-475z" />
<glyph unicode="p" d="M100 -440v1441h95v-112q59 84 192 117q65 16 124 15q63 0 122 -17q104 -29 168.5 -94.5t64.5 -161.5v-465q0 -143 -130 -225q-112 -69 -246 -69q-22 0 -45 2q-161 13 -242 111v-542h-103zM203 266q0 -63 57 -109t140 -58q43 -6 87 -6q39 0 78 5q82 10 139.5 58.5 t57.5 122.5v469h2q0 57 -44 97t-116 60q-51 14 -121 15q-111 0 -195.5 -54.5t-84.5 -163.5v-436z" />
<glyph unicode="q" horiz-adv-x="962" d="M98 283v465q0 96 64.5 161.5t169.5 94.5q58 18 121 17q60 0 125 -15q133 -33 190 -117v112h96v-1441h-104v542q-82 -98 -242 -111q-23 -2 -44 -2q-134 0 -246 69q-130 82 -130 225zM201 279q0 -74 57 -122t139 -59q39 -5 79 -5q43 0 86 6q83 11 140.5 57.5t57.5 109.5 v436q0 109 -84 163.5t-195 54.5q-68 0 -123 -15q-70 -20 -113.5 -60t-43.5 -97v-469z" />
<glyph unicode="r" horiz-adv-x="653" d="M102 0v457v262v287h101v-111q61 88 191 116q60 13 114 12q64 0 121 -17l-17 -97q-38 15 -86 15q-17 0 -34 -1q-70 -7 -133.5 -29t-107.5 -69t-44 -104v-721h-105z" />
<glyph unicode="s" horiz-adv-x="911" d="M74 193l88 57q35 -82 117 -123q74 -37 147 -37h14q80 4 150 19q72 20 116 61t44 100q0 41 -17.5 72t-39 47.5t-66.5 29.5t-75 17t-87 13q-76 10 -114 16t-97 25.5t-88 46t-51.5 77t-22.5 117.5q2 100 66.5 169t169.5 99q88 18 184 21h9q92 0 179 -42q92 -44 129 -126 l-81 -53q-53 90 -178 112q-49 9 -92 9q-68 0 -124 -21q-160 -47 -159 -168q0 -41 17 -71.5t38.5 -47t66.5 -30t75 -17.5t87 -12q76 -10 114 -16.5t96.5 -25.5t88 -47t52 -77t22.5 -117q-2 -100 -66.5 -166.5t-169.5 -95.5q-70 -20 -151.5 -20t-160.5 18.5t-142 66.5t-88 120 z" />
<glyph unicode="t" horiz-adv-x="591" d="M25 913v93h176v432h102v-432h244v-93q-162 0 -244 -2v-628q0 -61 20.5 -101.5t61.5 -59t80 -24.5t100 -8v-94q-17 -1 -33 -1q-135 0 -228 60q-103 68 -103 226v632h-176z" />
<glyph unicode="u" horiz-adv-x="983" d="M100 276v728h103v-728q0 -88 84 -138t196 -50q115 0 198 53.5t83 149.5v713h102v-1004h-102v96q-94 -104 -279 -108q-158 0 -271.5 73.5t-113.5 214.5z" />
<glyph unicode="v" horiz-adv-x="950" d="M100 426v578h105v-578q0 -55 35 -88l237 -225l238 225q37 35 37 88v578h102v-578q0 -55 -15.5 -91t-64.5 -83l-276 -262h-41l-277 262q-49 47 -64.5 83t-15.5 91z" />
<glyph unicode="w" horiz-adv-x="1509" d="M98 426v578h105v-578q0 -51 35 -88l215 -225l215 225q37 37 37 88v578h102v-578q0 -51 37 -88l215 -225l215 225q35 37 35 88v578h104v-578q0 -53 -15.5 -89t-64.5 -85l-256 -262h-39l-282 299l-283 -299h-39l-256 262q-49 49 -64.5 85t-15.5 89z" />
<glyph unicode="x" horiz-adv-x="942" d="M90 0v127q0 55 15.5 91t64.5 83l211 201l-211 200q-49 47 -64.5 83t-15.5 92v127h103v-127q0 -53 36 -89l236 -225h2l235 225q37 33 37 89v127h105v-127q0 -55 -15.5 -91t-64.5 -84l-213 -200l213 -201q49 -47 64.5 -83t15.5 -91v-127h-105v127q0 55 -37 88l-235 225h-2 l-236 -225q-37 -35 -36 -88v-127h-103z" />
<glyph unicode="y" horiz-adv-x="964" d="M98 264v740h105v-738q0 -86 80 -133q78 -45 198 -49l6 2q178 0 248 94q27 35 27 92v732h102v-1143v-19q0 -100 -65.5 -166.5t-165.5 -93.5q-70 -20 -150 -20q-111 0 -211 40t-145 126l88 47q76 -111 268 -111q70 0 121 14q66 18 111 60.5t47 103.5v19v16v201 q-100 -92 -263 -97q-11 0 -22 -1q-148 0 -248 65q-131 78 -131 219z" />
<glyph unicode="z" horiz-adv-x="882" d="M80 103q-13 31 -13 61q0 67 68 127l559 493q32 29 32 57q0 11 -5 22q-18 38 -78 38h-551v103h555q131 -2 174 -105q13 -31 13 -60q0 -68 -70 -126l-559 -494q-31 -29 -31 -57q0 -11 5 -22q17 -38 79 -38h573v-102h-577q-131 2 -174 103z" />
<glyph unicode="&#xa1;" horiz-adv-x="376" d="M127 887v147h117v-147h-117zM129 -403v1126h109v-1126h-109z" />
<glyph unicode="&#xa2;" horiz-adv-x="954" d="M98 268v469q0 98 65.5 164t168.5 94q63 16 106 19v135h97v-137q41 -2 96 -17q104 -29 168.5 -94t64.5 -164h-102q0 59 -44 99.5t-116 60.5q-59 16 -120.5 16t-123.5 -16q-158 -43 -157 -162v-467q0 -119 157 -164q121 -33 244 0h2q70 20 114 60.5t44 99.5h102 q0 -96 -64.5 -161.5t-168.5 -94.5v-2q-35 -8 -96 -16v-140h-97v140q-49 2 -106 16q-102 29 -168 95.5t-66 166.5z" />
<glyph unicode="&#xa8;" horiz-adv-x="729" d="M131 1315v129h121v-129h-121zM434 1315v129h121v-129h-121z" />
<glyph unicode="&#xaa;" horiz-adv-x="952" d="M43 359q27 116 129 184q122 82 313 82q100 0 220 -23v131q0 51 -25 84q-49 70 -172 94q-35 6 -75.5 6.5t-86.5 -6.5q-131 -23 -188 -106l-88 55q57 94 199 133q78 21 157 22q64 0 129 -15q143 -32 209 -121q43 -61 43 -154v-539q0 -96 100 -96v-92q-14 -1 -27 -1 q-117 0 -157 83q-109 -106 -299 -107q-68 0 -150 21q-133 37 -195 143q-44 75 -44 154q0 33 8 68zM146 341q-6 -25 -6 -50q0 -52 28 -101q41 -72 135 -98q51 -14 121 -14q102 0 191.5 42t89.5 130v258q-89 27 -199 27q-24 0 -48 -1q-138 -7 -220 -65q-73 -49 -92 -128z" />
<glyph unicode="&#xad;" horiz-adv-x="649" d="M88 510v102h440v-102h-440z" />
<glyph unicode="&#xb2;" horiz-adv-x="1005" d="M82 168v96q0 96 40 174t113.5 133.5t143.5 93t170 85t149 75.5q141 82 138 252q0 119 -97 199q-156 127 -401 55q-61 -16 -105.5 -65t-46.5 -113h-102q0 92 57.5 159.5t149.5 100.5h2q113 43 266.5 31t245.5 -88q131 -113 133 -277q0 -229 -188 -336 q-51 -31 -143.5 -71.5t-155 -72.5t-129 -78t-101.5 -111.5t-37 -147.5v-94q0 -45 16.5 -57.5t63.5 -12.5h666v-98h-668q-98 0 -139 35t-41 133z" />
<glyph unicode="&#xb3;" d="M80 0v104h416v-2l8 2q96 0 182 44.5t86 127.5v218q0 84 -87 131t-181 47h-8h-416v90h416h8q94 0 181 48t87 132v217q0 84 -86 128t-182 44h-8h-416v105l426 -2q141 0 256 -72t115 -203v-217q0 -145 -150 -225q150 -76 150 -223v-218q0 -131 -114 -202.5t-257 -73.5h-426z " />
<glyph unicode="&#xb4;" horiz-adv-x="411" d="M125 1421l59 178h133v-14l-102 -164h-90z" />
<glyph unicode="&#xb8;" horiz-adv-x="559" d="M102 -326l58 50q37 -41 114.5 -33t77.5 61q0 20 -12 34.5t-40 21t-43 8.5t-54 2h-39v12l69 156h78l-47 -109q94 4 143.5 -36t47.5 -93q-2 -72 -74 -110.5t-156 -28.5t-123 65z" />
<glyph unicode="&#xb9;" horiz-adv-x="497" d="M55 1327v107h322v-1434h-105v1327h-217z" />
<glyph unicode="&#xba;" horiz-adv-x="960" d="M96 266v475q0 96 64.5 162t169.5 94q70 20 149 21q82 0 150 -21q104 -29 168.5 -94t64.5 -162v-475q0 -178 -207 -250q-82 -26 -172 -26q-50 0 -102 8q-125 23 -205 91t-80 177zM199 266q0 -66 56 -110.5t142 -59.5q43 -7 85 -7q74 0 141 24q137 47 137 153v475 q0 57 -44 97.5t-114 60.5q-61 16 -122.5 16t-123.5 -16q-158 -43 -157 -158v-475z" />
<glyph unicode="&#xbf;" horiz-adv-x="989" d="M72 -33q-4 231 188 340q29 16 74 41q104 57 122.5 93t20.5 188v51v133h103v-135v-96q0 -39 -7.5 -77t-8.5 -57.5t-18.5 -46t-22.5 -35t-36.5 -32t-43 -30.5t-60.5 -34.5t-72 -42.5q-141 -84 -137 -260q0 -119 96 -198q150 -125 402 -56q61 18 105 67.5t46 113.5h103 q0 -92 -58.5 -161t-150.5 -100q-113 -43 -266.5 -30.5t-245.5 88.5q-131 106 -133 276zM473 930v121h113v-121h-113z" />
<glyph unicode="&#xc0;" horiz-adv-x="1093" d="M102 0v1171q0 135 127 211q113 68 307.5 68t305.5 -68q127 -76 127 -211h2v-1171h-103v561h-663v-561h-103zM205 664h663v507q0 76 -80 125q-88 53 -253.5 53.5t-251.5 -53.5q-78 -47 -78 -125v-507zM389 1677v13h133l60 -160h-90z" />
<glyph unicode="&#xc1;" horiz-adv-x="1093" d="M102 0h103v561h663v-561h103v1171h-2q0 135 -127 211q-111 68 -305.5 68t-307.5 -68q-127 -76 -127 -211v-1171zM205 664v507q0 78 78 125q86 53 251.5 53.5t253.5 -53.5q80 -49 80 -125v-507h-663zM475 1536l64 147h141v-10l-109 -137h-96z" />
<glyph unicode="&#xc2;" horiz-adv-x="1093" d="M102 0h103v561h663v-561h103v1171h-2q0 135 -127 211q-111 68 -305.5 68t-307.5 -68q-127 -76 -127 -211v-1171zM205 664v507q0 78 78 125q86 53 251.5 53.5t253.5 -53.5q80 -49 80 -125v-507h-663zM354 1528l125 141h131l121 -141h-100l-86 71l-86 -71h-105z" />
<glyph unicode="&#xc3;" horiz-adv-x="1093" d="M102 0v1171q0 135 127 211q113 68 307.5 68t305.5 -68q127 -76 127 -211h2v-1171h-103v561h-663v-561h-103zM205 664h663v507q0 76 -80 125q-88 53 -253.5 53.5t-251.5 -53.5q-78 -47 -78 -125v-507zM344 1554q8 41 44 76t77 37q43 4 94 -29.5t66 -31.5q37 2 47 45 l63 -27q-8 -41 -36.5 -67.5t-71.5 -28.5q-39 -2 -86 30.5t-68 32.5q-23 -2 -42 -18.5t-23 -38.5z" />
<glyph unicode="&#xc4;" horiz-adv-x="1093" d="M102 0v1171q0 135 127 211q113 68 307.5 68t305.5 -68q127 -76 127 -211h2v-1171h-103v561h-663v-561h-103zM205 664h663v507q0 76 -80 125q-88 53 -253.5 53.5t-251.5 -53.5q-78 -47 -78 -125v-507zM330 1532v113h123v-113h-123zM639 1532v113h125v-113h-125z" />
<glyph unicode="&#xc5;" horiz-adv-x="1093" d="M102 0h103v561h663v-561h103v1171h-2q0 135 -127 211q-111 68 -305.5 68t-307.5 -68q-127 -76 -127 -211v-1171zM205 664v507q0 78 78 125q86 53 251.5 53.5t253.5 -53.5q80 -49 80 -125v-507h-663zM416 1608q0 47 34.5 79.5t86 32.5t87 -32.5t35.5 -79.5t-35.5 -80 t-87 -33t-86 33t-34.5 80zM487 1606q0 -45 52 -45q20 0 34.5 12t14.5 32.5t-14.5 34t-34.5 13.5q-23 0 -37.5 -13.5t-14.5 -33.5z" />
<glyph unicode="&#xc6;" horiz-adv-x="1699" d="M102 0v1157q0 135 127 211q115 68 310 68h1056v-103h-659v-639h659v-104h-659q0 -334 8 -357q23 -66 104.5 -97.5t168.5 -31.5h378v-104h-378v2q-147 -2 -265 68.5t-118 205.5v314h-629v-590h-103zM205 692h629v643h-299q-164 0 -252 -53q-78 -47 -78 -125v-465z" />
<glyph unicode="&#xc7;" horiz-adv-x="1056" d="M102 268v899q2 106 79 175t198 92q82 16 193.5 12t189.5 -29q209 -72 209 -250h-103q0 106 -137 154q-145 47 -334 12q-84 -16 -138 -59t-54 -107v-899q0 -57 45 -97t119 -60q72 -18 173 -18.5t173 20.5q154 43 153 155l103 2q0 -96 -62.5 -161.5t-165.5 -94.5 q-72 -20 -159 -22l-27 -64q94 4 143.5 -35.5t47.5 -93.5q-2 -72 -74 -110.5t-156 -28.5t-123 66l58 49q37 -41 114.5 -33t77.5 61q0 20 -12 35t-40 21t-43 8t-54 2h-39v12l49 111q-100 4 -164 20q-106 29 -172 94.5t-68 161.5z" />
<glyph unicode="&#xc8;" d="M102 276v1160h762v-103h-659v-563h659v-104h-659q0 -410 8 -433q23 -66 104.5 -97.5t167.5 -31.5h379v-104h-379v2q-147 -2 -265 68.5t-118 205.5zM356 1657v10h136l61 -141h-92z" />
<glyph unicode="&#xc9;" d="M102 276q0 -135 118 -205.5t265 -68.5v-2h379v104h-379q-86 0 -167.5 32t-104.5 97q-8 23 -8 433h659v104h-659v563h659v103h-762v-1160zM430 1526l62 141h135v-10l-105 -131h-92z" />
<glyph unicode="&#xca;" d="M102 276q0 -135 118 -205.5t265 -68.5v-2h379v104h-379q-86 0 -167.5 32t-104.5 97q-8 23 -8 433h659v104h-659v563h659v103h-762v-1160zM326 1526l125 137h131l120 -137h-100l-86 78l-86 -78h-104z" />
<glyph unicode="&#xcb;" d="M102 276v1160h762v-103h-659v-563h659v-104h-659q0 -410 8 -433q23 -66 104.5 -97.5t167.5 -31.5h379v-104h-379v2q-147 -2 -265 68.5t-118 205.5zM305 1536v104h123v-104h-123zM614 1536v104h123v-104h-123z" />
<glyph unicode="&#xcc;" horiz-adv-x="366" d="M39 1657v10h135l62 -141h-93zM129 0v1436h102v-1436h-102z" />
<glyph unicode="&#xcd;" horiz-adv-x="366" d="M129 0h102v1436h-102v-1436zM135 1530l62 141h135v-10l-105 -131h-92z" />
<glyph unicode="&#xce;" horiz-adv-x="366" d="M0 1526l121 145h129l119 -145h-99l-86 82l-84 -82h-100zM129 0h102v1436h-102v-1436z" />
<glyph unicode="&#xcf;" horiz-adv-x="366" d="M-18 1528v119h120v-119h-120zM129 0v1436h102v-1436h-102zM285 1528v119h121v-119h-121z" />
<glyph unicode="&#xd1;" horiz-adv-x="1085" d="M102 0v1434h111l616 -1158l52 -135h6l-19 146v1147h103v-1434h-109l-616 1157l-51 137h-9l19 -145v-1149h-103zM350 1548q8 41 44 76t77 37q43 4 94 -30t66 -32q37 2 47 46l63 -27q-8 -41 -36.5 -67.5t-71.5 -28.5q-39 -2 -86 30.5t-68 32.5q-23 -2 -42 -18.5t-23 -38.5z " />
<glyph unicode="&#xd2;" horiz-adv-x="1075" d="M104 262v914q0 104 89.5 175.5t216.5 88t254 0t216 -88t89 -175.5v-914q0 -106 -89 -179t-216 -89.5t-254 0t-216.5 89.5t-89.5 179zM207 1176l2 -904q0 -41 6 -53q29 -84 175.5 -118.5t292.5 0t175 118.5q6 12 6 53l2 904q0 70 -67.5 116.5t-164.5 57t-194.5 0t-165 -57 t-67.5 -116.5zM412 1661v10h135l61 -141h-92z" />
<glyph unicode="&#xd3;" horiz-adv-x="1075" d="M104 262q0 -106 89.5 -179t216.5 -89.5t254 0t216 89.5t89 179v914q0 104 -89 175.5t-216 88t-254 0t-216.5 -88t-89.5 -175.5v-914zM207 1176q0 70 67.5 116.5t165 57t194.5 0t164.5 -57.5t67.5 -116l-2 -904q0 -41 -6 -53q-29 -84 -175 -118.5t-292.5 0t-175.5 118.5 q-6 12 -6 53zM475 1526l62 141h135v-10l-105 -131h-92z" />
<glyph unicode="&#xd4;" horiz-adv-x="1075" d="M104 262q0 -106 89.5 -179t216.5 -89.5t254 0t216 89.5t89 179v914q0 104 -89 175.5t-216 88t-254 0t-216.5 -88t-89.5 -175.5v-914zM207 1176q0 70 67.5 116.5t165 57t194.5 0t164.5 -57.5t67.5 -116l-2 -904q0 -41 -6 -53q-29 -84 -175 -118.5t-292.5 0t-175.5 118.5 q-6 12 -6 53zM348 1526l125 137h131l121 -137h-100l-86 78l-86 -78h-105z" />
<glyph unicode="&#xd5;" horiz-adv-x="1075" d="M104 262v914q0 104 89.5 175.5t216.5 88t254 0t216 -88t89 -175.5v-914q0 -106 -89 -179t-216 -89.5t-254 0t-216.5 89.5t-89.5 179zM207 1176l2 -904q0 -41 6 -53q29 -84 175.5 -118.5t292.5 0t175 118.5q6 12 6 53l2 904q0 70 -67.5 116.5t-164.5 57t-194.5 0t-165 -57 t-67.5 -116.5zM340 1550q8 41 44 76t77 37q43 4 94 -30t66 -31q37 2 47 45l63 -27q-8 -41 -36.5 -67.5t-71.5 -28.5q-39 -2 -86.5 30.5t-67.5 32.5q-23 -2 -42 -18.5t-24 -38.5z" />
<glyph unicode="&#xd6;" horiz-adv-x="1075" d="M104 262v914q0 104 89.5 175.5t216.5 88t254 0t216 -88t89 -175.5v-914q0 -106 -89 -179t-216 -89.5t-254 0t-216.5 89.5t-89.5 179zM207 1176l2 -904q0 -41 6 -53q29 -84 175.5 -118.5t292.5 0t175 118.5q6 12 6 53l2 904q0 70 -67.5 116.5t-164.5 57t-194.5 0t-165 -57 t-67.5 -116.5zM330 1532v108h119v-108h-119zM631 1532v108h121v-108h-121z" />
<glyph unicode="&#xd8;" horiz-adv-x="1075" d="M104 262v914q0 92 71 157.5t173.5 92t221 22.5t212.5 -43l49 108h107l-70 -155q100 -74 101 -182v-914q0 -94 -73 -161.5t-178.5 -94t-225 -20.5t-213.5 47l-54 -119h-104l74 168q-91 74 -91 180zM207 1176l2 -904q0 -41 6 -53q6 -20 23 -41l507 1141q-104 35 -224 37 t-217 -48t-97 -132zM319 123q127 -59 315.5 -30.5t223.5 126.5q6 12 6 53l2 904q0 51 -39 90z" />
<glyph unicode="&#xd9;" horiz-adv-x="1079" d="M102 268v1166h103v-1166q0 -82 80 -129q76 -49 229 -49h31q172 0 243 45q80 47 80 133v1166h103v-1166q0 -137 -129 -217q-109 -68 -295 -63h-21q-186 -4 -295 63q-129 80 -129 217zM401 1657v10h136l61 -141h-92z" />
<glyph unicode="&#xda;" horiz-adv-x="1079" d="M102 268q0 -137 129 -217q109 -68 295 -63h21q186 -4 295 63q129 80 129 217v1166h-103v-1166q0 -86 -80 -133q-72 -45 -243 -45h-31q-154 0 -229 49q-80 47 -80 129v1166h-103v-1166zM455 1526l61 141h135v-10l-104 -131h-92z" />
<glyph unicode="&#xdb;" horiz-adv-x="1079" d="M102 268q0 -137 129 -217q109 -68 295 -63h21q186 -4 295 63q129 80 129 217v1166h-103v-1166q0 -86 -80 -133q-72 -45 -243 -45h-31q-154 0 -229 49q-80 47 -80 129v1166h-103v-1166zM365 1528l120 137h129l117 -137h-98l-84 78l-84 -78h-100z" />
<glyph unicode="&#xdc;" horiz-adv-x="1079" d="M102 268v1166h103v-1166q0 -82 80 -129q76 -49 229 -49h31q172 0 243 45q80 47 80 133v1166h103v-1166q0 -137 -129 -217q-109 -68 -295 -63h-21q-186 -4 -295 63q-129 80 -129 217zM336 1528v117h123v-117h-123zM641 1528v117h121v-117h-121z" />
<glyph unicode="&#xdd;" horiz-adv-x="993" d="M80 1051q0 -109 78 -187l291 -303v-559h102v559l291 303q78 78 78 187v383h-105v-385q0 -66 -53 -119l-262 -275l-262 275q-53 53 -54 119v385h-104v-383zM434 1536l64 156h139v-13l-107 -143h-96z" />
<glyph unicode="&#xe0;" horiz-adv-x="952" d="M43 359.5q27 115.5 129 183.5q186 125 533 59v131q0 51 -25 84q-49 70 -172 94q-70 12 -162 0q-131 -23 -188 -106l-88 55q57 94 199.5 133t285.5 7.5t209 -121.5q43 -61 43 -154v-539q0 -96 100 -96v-92q-139 -10 -184 82q-109 -106 -299 -107q-68 0 -150 21 q-133 37 -195.5 143.5t-35.5 222zM146.5 341q-19.5 -79 21.5 -150.5t135 -98.5q51 -14 121 -14q102 0 191.5 42t89.5 130v258q-109 33 -247.5 25.5t-219.5 -64.5q-72 -49 -91.5 -128zM313 1358v14h133l60 -178h-90z" />
<glyph unicode="&#xe1;" horiz-adv-x="952" d="M43 359.5q-27 -115.5 35.5 -222t195.5 -143.5q82 -20 150 -21q190 0 299 107q45 -92 184 -82v92q-100 0 -100 96v539q0 92 -43 154q-66 90 -209 121.5t-285.5 -7.5t-199.5 -133l88 -55q57 84 188 106q92 12 162 0q123 -25 172 -94q25 -33 25 -84v-131q-346 66 -533 -59 q-102 -68 -129 -183.5zM146.5 341q19.5 79 91.5 128q82 57 220 64.5t247 -25.5v-258q0 -88 -89.5 -130t-191.5 -42q-70 0 -121 14q-94 27 -135 98.5t-21.5 150.5zM385 1196l59 178h134v-14l-103 -164h-90z" />
<glyph unicode="&#xe2;" horiz-adv-x="952" d="M43 359.5q-27 -115.5 35.5 -222t195.5 -143.5q82 -20 150 -21q190 0 299 107q45 -92 184 -82v92q-100 0 -100 96v539q0 92 -43 154q-66 90 -209 121.5t-285.5 -7.5t-199.5 -133l88 -55q57 84 188 106q92 12 162 0q123 -25 172 -94q25 -33 25 -84v-131q-346 66 -533 -59 q-102 -68 -129 -183.5zM146.5 341q19.5 79 91.5 128q82 57 220 64.5t247 -25.5v-258q0 -88 -89.5 -130t-191.5 -42q-70 0 -121 14q-94 27 -135 98.5t-21.5 150.5zM264 1190l123 170h131l121 -170h-100l-86 96l-86 -96h-103z" />
<glyph unicode="&#xe3;" horiz-adv-x="952" d="M43 359.5q27 115.5 129 183.5q186 125 533 59v131q0 51 -25 84q-49 70 -172 94q-70 12 -162 0q-131 -23 -188 -106l-88 55q57 94 199.5 133t285.5 7.5t209 -121.5q43 -61 43 -154v-539q0 -96 100 -96v-92q-139 -10 -184 82q-109 -106 -299 -107q-68 0 -150 21 q-133 37 -195.5 143.5t-35.5 222zM146.5 341q-19.5 -79 21.5 -150.5t135 -98.5q51 -14 121 -14q102 0 191.5 42t89.5 130v258q-109 33 -247.5 25.5t-219.5 -64.5q-72 -49 -91.5 -128zM244 1214q8 41 44 76t77 37q43 4 94 -29.5t65 -31.5q37 2 47 45l64 -27q-8 -41 -37 -67.5 t-72 -28.5q-39 -2 -86 30.5t-67 32.5q-23 -2 -42.5 -18t-23.5 -39z" />
<glyph unicode="&#xe4;" horiz-adv-x="952" d="M43 359.5q27 115.5 129 183.5q186 125 533 59v131q0 51 -25 84q-49 70 -172 94q-70 12 -162 0q-131 -23 -188 -106l-88 55q57 94 199.5 133t285.5 7.5t209 -121.5q43 -61 43 -154v-539q0 -96 100 -96v-92q-139 -10 -184 82q-109 -106 -299 -107q-68 0 -150 21 q-133 37 -195.5 143.5t-35.5 222zM146.5 341q-19.5 -79 21.5 -150.5t135 -98.5q51 -14 121 -14q102 0 191.5 42t89.5 130v258q-109 33 -247.5 25.5t-219.5 -64.5q-72 -49 -91.5 -128zM252 1200v109h117v-109h-117zM543 1200v109h114v-109h-114z" />
<glyph unicode="&#xe5;" horiz-adv-x="952" d="M43 359.5q-27 -115.5 35.5 -222t195.5 -143.5q82 -20 150 -21q190 0 299 107q45 -92 184 -82v92q-100 0 -100 96v539q0 92 -43 154q-66 90 -209 121.5t-285.5 -7.5t-199.5 -133l88 -55q57 84 188 106q92 12 162 0q123 -25 172 -94q25 -33 25 -84v-131q-346 66 -533 -59 q-102 -68 -129 -183.5zM146.5 341q19.5 79 91.5 128q82 57 220 64.5t247 -25.5v-258q0 -88 -89.5 -130t-191.5 -42q-70 0 -121 14q-94 27 -135 98.5t-21.5 150.5zM326 1286q0 47 31.5 79t76.5 32t78 -33t33 -78t-32 -76.5t-79 -31.5q-45 0 -76.5 31.5t-31.5 76.5zM391 1284 q0 -18 12.5 -30.5t32.5 -12.5q18 0 31.5 12.5t13.5 30.5q0 20 -13 33.5t-32 13.5q-20 0 -32.5 -13.5t-12.5 -33.5z" />
<glyph unicode="&#xe6;" horiz-adv-x="1538" d="M43 359.5q27 115.5 129 183.5q186 125 533 59v139q-4 47 -25 76q-49 70 -172 94q-70 12 -162 0q-131 -23 -188 -106l-88 55q57 94 197.5 135t283.5 7.5t205 -138.5q63 100 184 133q150 41 297 0q129 -39 189.5 -149.5t26.5 -231t-153 -184.5q-49 -27 -121.5 -40 t-122.5 -14t-138.5 2t-110.5 3v-104q0 -47 27 -86q53 -72 170 -93q82 -14 161 0q129 16 191 105l88 -53q-76 -125 -264 -154q-94 -16 -179 -2q-152 23 -237 115q-61 -68 -158.5 -103t-181.5 -35q-68 0 -150 21q-133 37 -195.5 143.5t-35.5 222zM146.5 341 q-19.5 -79 21.5 -150.5t135 -98.5q51 -14 121 -14q68 0 158 31.5t135 87.5q-12 37 -12 82v229q-109 33 -247.5 25.5t-219.5 -64.5q-72 -49 -91.5 -128zM807 473q4 0 111.5 -1t189.5 9.5t143 38.5q84 39 107.5 121t-18.5 157.5t-130 100.5q-121 33 -243 0q-70 -20 -114 -59 t-46 -95v-4v-268z" />
<glyph unicode="&#xe7;" horiz-adv-x="954" d="M98 268v469q0 98 65.5 164t168.5 94q78 20 149 21q68 0 150 -21q104 -29 168.5 -94t64.5 -164h-102q0 59 -44 99.5t-116 60.5q-59 16 -120.5 16t-123.5 -16q-158 -43 -157 -162v-467q0 -119 157 -164q121 -33 244 0h2q70 20 114 60.5t44 99.5h102q0 -96 -64.5 -161.5 t-168.5 -94.5v-2q-68 -16 -137 -18l-25 -56q90 2 137 -33.5t45 -80.5q-2 -63 -70.5 -98t-150.5 -26t-119 58l56 43q35 -37 110.5 -29.5t75.5 54.5q0 14 -7 24.5t-20.5 16.5t-27 9t-34 5t-33.5 3t-34 1h-26v10l49 103q-31 2 -88 14q-102 29 -168 95.5t-66 166.5z" />
<glyph unicode="&#xe8;" horiz-adv-x="935" d="M102 287v454q0 96 64.5 162t171.5 94q150 41 297 0q129 -39 189.5 -149.5t26.5 -231t-153 -184.5q-49 -27 -121.5 -40t-121.5 -14t-137.5 2t-110.5 3v-104q0 -51 24 -86q53 -72 170 -93q82 -14 162 0q129 16 191 105l88 -53q-76 -125 -264 -154q-94 -16 -179 -2 q-172 27 -252 135q-45 66 -45 156zM207 473q4 0 110.5 -1t188.5 9.5t143 38.5q84 39 107.5 121t-18.5 157.5t-130 100.5q-121 33 -243 0q-70 -20 -114 -60t-44 -98v-268zM346 1358v14h133l60 -178h-90z" />
<glyph unicode="&#xe9;" horiz-adv-x="935" d="M102 287q0 -90 45 -156q80 -109 252 -135q84 -14 179 2q188 29 264 154l-88 53q-61 -88 -191 -105q-80 -14 -162 0q-117 20 -170 93q-25 35 -24 86v104q23 0 111 -3t137 -2t121.5 14.5t121.5 39.5q119 63 153 184t-26.5 231.5t-189.5 149.5q-147 41 -297 0 q-106 -29 -171 -94t-65 -162v-454zM207 473v268q0 57 44 97.5t114 60.5q123 33 243 0q88 -25 130 -100.5t18.5 -157.5t-107.5 -121q-61 -29 -143 -39t-188.5 -9t-110.5 1zM412 1186l59 178h133v-14l-102 -164h-90z" />
<glyph unicode="&#xea;" horiz-adv-x="935" d="M102 287q0 -90 45 -156q80 -109 252 -135q84 -14 179 2q188 29 264 154l-88 53q-61 -88 -191 -105q-80 -14 -162 0q-117 20 -170 93q-25 35 -24 86v104q23 0 111 -3t137 -2t121.5 14.5t121.5 39.5q119 63 153 184t-26.5 231.5t-189.5 149.5q-147 41 -297 0 q-106 -29 -171 -94t-65 -162v-454zM207 473v268q0 57 44 97.5t114 60.5q123 33 243 0q88 -25 130 -100.5t18.5 -157.5t-107.5 -121q-61 -29 -143 -39t-188.5 -9t-110.5 1zM283 1192l123 170h131l120 -170h-100l-86 96l-86 -96h-102z" />
<glyph unicode="&#xeb;" horiz-adv-x="935" d="M102 287v454q0 96 64.5 162t171.5 94q150 41 297 0q129 -39 189.5 -149.5t26.5 -231t-153 -184.5q-49 -27 -121.5 -40t-121.5 -14t-137.5 2t-110.5 3v-104q0 -51 24 -86q53 -72 170 -93q82 -14 162 0q129 16 191 105l88 -53q-76 -125 -264 -154q-94 -16 -179 -2 q-172 27 -252 135q-45 66 -45 156zM207 473q4 0 110.5 -1t188.5 9.5t143 38.5q84 39 107.5 121t-18.5 157.5t-130 100.5q-121 33 -243 0q-70 -20 -114 -60t-44 -98v-268zM270 1184v129h121v-129h-121zM573 1184v129h121v-129h-121z" />
<glyph unicode="&#xec;" horiz-adv-x="360" d="M43 1364v14h133l60 -178h-91zM129 0v1006h104v-1006h-104z" />
<glyph unicode="&#xed;" horiz-adv-x="360" d="M121 1200l59 178h133v-14l-102 -164h-90zM129 0h104v1006h-104v-1006z" />
<glyph unicode="&#xee;" horiz-adv-x="360" d="M-8 1200l123 170h131l121 -170h-101l-86 96l-86 -96h-102zM129 0h104v1006h-104v-1006z" />
<glyph unicode="&#xef;" horiz-adv-x="360" d="M-27 1284v129h121v-129h-121zM129 0v1006h104v-1006h-104zM276 1284v129h121v-129h-121z" />
<glyph unicode="&#xf1;" horiz-adv-x="970" d="M100 0v1008h105v-95q98 106 278 107q158 2 271.5 -73t113.5 -216v-731h-104v733q0 86 -83 136.5t-196 50.5q-115 0 -197.5 -52.5t-82.5 -150.5v-717h-105zM299 1217q8 41 44 75.5t77 36.5q43 4 94 -29.5t66 -31.5q37 2 47 45l63 -27q-8 -41 -36.5 -67.5t-71.5 -28.5 q-39 -2 -86 30.5t-68 32.5q-23 -2 -42 -18t-24 -39z" />
<glyph unicode="&#xf2;" horiz-adv-x="960" d="M96 266v475q0 96 64.5 162t169.5 94q70 20 149 21q82 0 150 -21q104 -29 168.5 -94t64.5 -162v-475q0 -178 -207 -250q-127 -41 -274 -18q-125 23 -205 91t-80 177zM199 266q0 -66 56 -110.5t142 -59.5q121 -20 226 17q137 47 137 153v475q0 57 -44 97.5t-114 60.5 q-61 16 -122.5 16t-123.5 -16q-158 -43 -157 -158v-475zM356 1350v14h133l60 -178h-90z" />
<glyph unicode="&#xf3;" horiz-adv-x="960" d="M96 266q0 -109 80 -177.5t205 -90.5q147 -23 274 18q207 72 207 250v475q0 96 -64.5 162t-168.5 94q-68 20 -150 21q-80 0 -149 -21q-104 -29 -169 -94t-65 -162v-475zM199 266v475q0 115 157 158q61 16 123 16t123 -16q70 -20 114 -60t44 -98v-475q0 -106 -137 -153 q-104 -37 -226 -17q-86 14 -142 59t-56 111zM436 1184l60 178h133v-14l-103 -164h-90z" />
<glyph unicode="&#xf4;" horiz-adv-x="960" d="M96 266q0 -109 80 -177.5t205 -90.5q147 -23 274 18q207 72 207 250v475q0 96 -64.5 162t-168.5 94q-68 20 -150 21q-80 0 -149 -21q-104 -29 -169 -94t-65 -162v-475zM199 266v475q0 115 157 158q61 16 123 16t123 -16q70 -20 114 -60t44 -98v-475q0 -106 -137 -153 q-104 -37 -226 -17q-86 14 -142 59t-56 111zM297 1194l123 170h131l121 -170h-101l-86 96l-86 -96h-102z" />
<glyph unicode="&#xf5;" horiz-adv-x="960" d="M96 266v475q0 96 64.5 162t169.5 94q70 20 149 21q82 0 150 -21q104 -29 168.5 -94t64.5 -162v-475q0 -178 -207 -250q-127 -41 -274 -18q-125 23 -205 91t-80 177zM199 266q0 -66 56 -110.5t142 -59.5q121 -20 226 17q137 47 137 153v475q0 57 -44 97.5t-114 60.5 q-61 16 -122.5 16t-123.5 -16q-158 -43 -157 -158v-475zM295 1217q8 41 44 75.5t77 36.5q43 4 94 -29.5t65 -31.5q37 2 48 45l63 -27q-8 -41 -36.5 -67.5t-71.5 -28.5q-39 -2 -86.5 30.5t-67.5 32.5q-23 -2 -42.5 -18t-23.5 -39z" />
<glyph unicode="&#xf6;" horiz-adv-x="960" d="M96 266v475q0 96 64.5 162t169.5 94q70 20 149 21q82 0 150 -21q104 -29 168.5 -94t64.5 -162v-475q0 -178 -207 -250q-127 -41 -274 -18q-125 23 -205 91t-80 177zM199 266q0 -66 56 -110.5t142 -59.5q121 -20 226 17q137 47 137 153v475q0 57 -44 97.5t-114 60.5 q-61 16 -122.5 16t-123.5 -16q-158 -43 -157 -158v-475zM272 1188v129h121v-129h-121zM575 1188v129h121v-129h-121z" />
<glyph unicode="&#xf8;" horiz-adv-x="960" d="M96 266v475q0 96 64.5 162t169.5 94q70 20 149 21q82 0 150 -21q35 -10 57 -20l45 82h109l-72 -129q94 -74 94 -189v-475q0 -178 -207 -250q-127 -41 -274 -18q-66 10 -113 33l-51 -94h-104l77 139q-94 73 -94 190zM199 266q0 -57 41 -98l397 719l-35 12 q-61 16 -122.5 16t-123.5 -16q-158 -43 -157 -158v-475zM317 119q41 -16 80 -23q121 -20 226 17q137 47 137 153v475q0 53 -43 97z" />
<glyph unicode="&#xf9;" d="M100 276v728h103v-728q0 -88 84 -138t196 -50q115 0 198 53.5t83 149.5v713h102v-1004h-102v96q-94 -104 -279 -108q-158 0 -271.5 73.5t-113.5 214.5zM358 1360v14h134l59 -178h-90z" />
<glyph unicode="&#xfa;" d="M100 276v728h103v-728q0 -88 84 -138t196 -50q115 0 198 53.5t83 149.5v713h102v-1004h-102v96q-94 -104 -279 -108q-158 0 -271.5 73.5t-113.5 214.5zM416 1192l59 178h133v-14l-102 -164h-90z" />
<glyph unicode="&#xfb;" d="M100 276v728h103v-728q0 -88 84 -138t196 -50q115 0 198 53.5t83 149.5v713h102v-1004h-102v96q-94 -104 -279 -108q-158 0 -271.5 73.5t-113.5 214.5zM303 1192l123 170h131l121 -170h-100l-86 96l-86 -96h-103z" />
<glyph unicode="&#xfc;" d="M100 276v728h103v-728q0 -88 84 -138t196 -50q115 0 198 53.5t83 149.5v713h102v-1004h-102v96q-94 -104 -279 -108q-158 0 -271.5 73.5t-113.5 214.5zM268 1192v129h121v-129h-121zM571 1192v129h121v-129h-121z" />
<glyph unicode="&#xfd;" horiz-adv-x="964" d="M98 264v740h105v-738q0 -86 80 -133q78 -45 198 -49l6 2q178 0 248 94q27 35 27 92v732h102v-1143v-19q0 -100 -65.5 -166.5t-165.5 -93.5q-70 -20 -150 -20q-111 0 -211 40t-145 126l88 47q76 -111 268 -111q70 0 121 14q66 18 111 60.5t47 103.5v19v16v201 q-100 -92 -263 -97.5t-270 64.5q-131 78 -131 219zM430 1192l59 178h134v-14l-103 -164h-90z" />
<glyph unicode="&#xff;" horiz-adv-x="964" d="M98 264v740h105v-738q0 -86 80 -133q78 -45 198 -49l6 2q178 0 248 94q27 35 27 92v732h102v-1143v-19q0 -100 -65.5 -166.5t-165.5 -93.5q-70 -20 -150 -20q-111 0 -211 40t-145 126l88 47q76 -111 268 -111q70 0 121 14q66 18 111 60.5t47 103.5v19v16v201 q-100 -92 -263 -97.5t-270 64.5q-131 78 -131 219zM287 1202v129h121v-129h-121zM590 1202v129h121v-129h-121z" />
<glyph unicode="&#x152;" horiz-adv-x="1718" d="M104 262v914q0 98 84 166.5t203 94t251 13.5t222 -61v47h762v-103h-659v-563h659v-104h-659q0 -410 8 -433q23 -66 104.5 -97.5t167.5 -31.5h379v-104h-379q-229 0 -327 139q-80 -117 -279 -146.5t-368 45t-169 224.5zM207 1176l2 -904q0 -41 6 -53q29 -84 175.5 -118.5 t292.5 0t175 118.5q6 12 6 53v1006q-70 68 -229.5 82t-293.5 -37t-134 -147z" />
<glyph unicode="&#x153;" horiz-adv-x="1593" d="M96 266v475q0 96 64.5 162t169.5 94q70 20 149 21q82 0 150 -21q125 -35 182 -133q59 98 184 133q147 41 297 0q129 -39 189.5 -149.5t27 -231t-152.5 -184.5q-49 -27 -122 -40t-123 -14t-138 2t-111 3v-117q2 -41 27 -73q53 -72 170 -93q80 -14 162 0q129 16 190 105 l88 -53q-76 -125 -264 -154q-96 -16 -178 -2q-172 25 -244 151q-37 -88 -158 -131q-127 -41 -274 -18q-125 23 -205 91t-80 177zM199 266q0 -66 56 -110.5t142 -59.5q121 -20 226 17q137 47 137 153v475q0 57 -44 97.5t-114 60.5q-61 16 -122.5 16t-123.5 -16 q-158 -43 -157 -158v-475zM862 473q4 0 111.5 -1t189.5 9.5t144 38.5q84 39 107.5 121t-18.5 157.5t-130 100.5q-123 33 -244 0q-70 -20 -114 -59t-46 -92v-7v-268z" />
<glyph unicode="&#x178;" horiz-adv-x="993" d="M80 1051v383h104v-385q0 -66 54 -119l262 -275l262 275q53 53 53 119v385h105v-383q0 -109 -78 -187l-291 -303v-559h-102v559l-291 303q-78 78 -78 187zM297 1528v112h117v-112h-117zM588 1528v112h114v-112h-114z" />
<glyph unicode="&#x2c6;" horiz-adv-x="649" d="M147 1421l123 170h131l121 -170h-100l-86 97l-86 -97h-103z" />
<glyph unicode="&#x2dc;" horiz-adv-x="598" d="M92 1325q8 41 44 76t77 37q43 4 94 -30t66 -32q37 2 47 45l63 -26q-8 -41 -36.5 -68t-71.5 -29q-39 -2 -86 31t-68 33q-23 -2 -42 -18.5t-23 -38.5z" />
<glyph unicode="&#x2000;" horiz-adv-x="860" />
<glyph unicode="&#x2001;" horiz-adv-x="1720" />
<glyph unicode="&#x2002;" horiz-adv-x="860" />
<glyph unicode="&#x2003;" horiz-adv-x="1720" />
<glyph unicode="&#x2004;" horiz-adv-x="573" />
<glyph unicode="&#x2005;" horiz-adv-x="430" />
<glyph unicode="&#x2006;" horiz-adv-x="286" />
<glyph unicode="&#x2007;" horiz-adv-x="286" />
<glyph unicode="&#x2008;" horiz-adv-x="215" />
<glyph unicode="&#x2009;" horiz-adv-x="344" />
<glyph unicode="&#x200a;" horiz-adv-x="94" />
<glyph unicode="&#x2010;" horiz-adv-x="649" d="M88 510v102h440v-102h-440z" />
<glyph unicode="&#x2011;" horiz-adv-x="649" d="M88 510v102h440v-102h-440z" />
<glyph unicode="&#x2012;" horiz-adv-x="649" d="M88 510v102h440v-102h-440z" />
<glyph unicode="&#x2013;" horiz-adv-x="1024" d="M88 510v102h815v-102h-815z" />
<glyph unicode="&#x2014;" horiz-adv-x="2048" d="M88 510v102h1839v-102h-1839z" />
<glyph unicode="&#x2018;" horiz-adv-x="415" d="M164 1188v137q0 121 110 109v-45q-16 2 -27 -19.5t-5 -44.5h45v-137h-123z" />
<glyph unicode="&#x2019;" horiz-adv-x="403" d="M164 1298v138h123v-138q0 -121 -111 -108v45q16 -2 27.5 19.5t5.5 43.5h-45z" />
<glyph unicode="&#x201a;" horiz-adv-x="475" d="M164 4v137h123v-137q0 -121 -111 -108v45q16 -2 27.5 19.5t5.5 43.5h-45z" />
<glyph unicode="&#x201c;" horiz-adv-x="641" d="M164 1188v137q0 121 110 109v-45q-16 2 -27 -19.5t-5 -44.5h45v-137h-123zM381 1188v137q0 121 111 109v-45q-16 2 -27.5 -19.5t-5.5 -44.5h45v-137h-123z" />
<glyph unicode="&#x201d;" horiz-adv-x="645" d="M164 1298v138h123v-138q0 -121 -111 -108v45q16 -2 27.5 19.5t5.5 43.5h-45zM381 1298v138h123v-138q0 -121 -111 -108v45q16 -2 27.5 19.5t5.5 43.5h-45z" />
<glyph unicode="&#x201e;" horiz-adv-x="657" d="M164 4v137h123v-137q0 -121 -111 -108v45q16 -2 27.5 19.5t5.5 43.5h-45zM393 4v137h123v-137q0 -121 -110 -108v45q16 -2 27 19.5t5 43.5h-45z" />
<glyph unicode="&#x2026;" horiz-adv-x="1056" d="M137 -2v139h123v-139h-123zM471 -2v139h123v-139h-123zM809 -2v139h123v-139h-123z" />
<glyph unicode="&#x202f;" horiz-adv-x="344" />
<glyph unicode="&#x205f;" horiz-adv-x="430" />
<glyph unicode="&#x20ac;" horiz-adv-x="1069" d="M4 551v92h98v107h-98v92h98v325q2 106 79 175t198 92q82 16 193.5 12t189.5 -29q209 -72 209 -250h-103q0 106 -137 154q-145 47 -334 12q-84 -16 -138 -59t-54 -107v-325h303v-92h-303v-107h303v-92h-303v-283q0 -57 45 -97t119 -60q72 -18 173 -18.5t173 20.5 q154 43 153 155l103 2q0 -96 -62.5 -161.5t-165.5 -94.5q-82 -23 -201.5 -23.5t-199.5 21.5q-106 29 -172 94.5t-68 161.5v283h-98z" />
<glyph unicode="&#x2122;" horiz-adv-x="2336" d="M1089 0v1434h127l435 -955l436 955h127v-1434h-105v1149l15 145h-6l-43 -137l-381 -813h-84l-381 813l-43 137h-6l14 -145v-1149h-105zM45 1343v91h883v-91h-389l-4 -1343h-105l4 1343h-389z" />
<glyph unicode="&#xe000;" horiz-adv-x="1004" d="M0 1005h1005v-1005h-1005v1005z" />
<glyph unicode="&#xfb01;" horiz-adv-x="952" d="M715 1255v183h117v-183h-117zM721 0v1006h104v-1006h-104zM31 911v95h176v149q0 160 104 227q93 60 229 61q16 0 33 -1v-94q-61 -2 -100 -8.5t-80 -25t-61.5 -58t-20.5 -101.5v-149h242v-95h-242v-911h-104v911h-176z" />
<glyph unicode="&#xfb02;" horiz-adv-x="999" d="M696 217v1217h103v-1219q0 -78 32.5 -104.5t116.5 -26.5v-92q-18 -1 -35 -1q-104 0 -156 43q-61 50 -61 183zM31 911v95h176v149q0 160 104 227q93 60 229 61q16 0 33 -1v-94q-61 -2 -100 -8.5t-80 -25t-61.5 -58t-20.5 -101.5v-149h242v-95h-242v-911h-104v911h-176z " />
<glyph unicode="&#xfb03;" horiz-adv-x="1544" d="M1307 1255v183h117v-183h-117zM1313 0v1006h104v-1006h-104zM623 911v95h176v149q0 160 104 227q93 60 229 61q16 0 33 -1v-94q-61 -2 -100 -8.5t-80 -25t-61.5 -58t-20.5 -101.5v-149h242v-95h-242v-911h-104v911h-176zM31 911v95h176v149q0 160 104 227q93 60 229 61 q16 0 33 -1v-94q-61 -2 -100 -8.5t-80 -25t-61.5 -58t-20.5 -101.5v-149h242v-95h-242v-911h-104v911h-176z" />
<glyph unicode="&#xfb04;" horiz-adv-x="1591" d="M1288 217v1217h103v-1219q0 -78 32.5 -104.5t116.5 -26.5v-92q-18 -1 -35 -1q-104 0 -156 43q-61 50 -61 183zM623 911v95h176v149q0 160 104 227q93 60 229 61q16 0 33 -1v-94q-61 -2 -100 -8.5t-80 -25t-61.5 -58t-20.5 -101.5v-149h242v-95h-242v-911h-104v911h-176z M31 911v95h176v149q0 160 104 227q93 60 229 61q16 0 33 -1v-94q-61 -2 -100 -8.5t-80 -25t-61.5 -58t-20.5 -101.5v-149h242v-95h-242v-911h-104v911h-176z" />
</font>
</defs>
</svg>
